<?xml version="1.0" standalone="no"?>
<!DOCTYPE svg PUBLIC "-//W3C//DTD SVG 1.1//EN" "http://www.w3.org/Graphics/SVG/1.1/DTD/svg11.dtd" >
<svg xmlns="http://www.w3.org/2000/svg">
<metadata>
Created by FontForge 20120731 at Sat Aug 20 20:51:24 2016
 By admin
</metadata>
<defs>
<font id="iconfont" horiz-adv-x="1024" >
  <font-face 
    font-family="iconfont"
    font-weight="500"
    font-stretch="normal"
    units-per-em="1024"
    panose-1="2 0 6 3 0 0 0 0 0 0"
    ascent="896"
    descent="-128"
    x-height="792"
    bbox="0 -128 1160.52 896.36"
    underline-thickness="50"
    underline-position="-100"
    unicode-range="U+0078-E631"
  />
<missing-glyph horiz-adv-x="374" 
d="M34 0v682h272v-682h-272zM68 34h204v614h-204v-614z" />
    <glyph glyph-name=".notdef" horiz-adv-x="374" 
d="M34 0v682h272v-682h-272zM68 34h204v614h-204v-614z" />
    <glyph glyph-name=".null" horiz-adv-x="0" 
 />
    <glyph glyph-name="nonmarkingreturn" horiz-adv-x="341" 
 />
    <glyph glyph-name="x" unicode="x" horiz-adv-x="1001" 
d="M281 543q-27 -1 -53 -1h-83q-18 0 -36.5 -6t-32.5 -18.5t-23 -32t-9 -45.5v-76h912v41q0 16 -0.5 30t-0.5 18q0 13 -5 29t-17 29.5t-31.5 22.5t-49.5 9h-133v-97h-438v97zM955 310v-52q0 -23 0.5 -52t0.5 -58t-10.5 -47.5t-26 -30t-33 -16t-31.5 -4.5q-14 -1 -29.5 -0.5
t-29.5 0.5h-32l-45 128h-439l-44 -128h-29h-34q-20 0 -45 1q-25 0 -41 9.5t-25.5 23t-13.5 29.5t-4 30v167h911zM163 247q-12 0 -21 -8.5t-9 -21.5t9 -21.5t21 -8.5q13 0 22 8.5t9 21.5t-9 21.5t-22 8.5zM316 123q-8 -26 -14 -48q-5 -19 -10.5 -37t-7.5 -25t-3 -15t1 -14.5
t9.5 -10.5t21.5 -4h37h67h81h80h64h36q23 0 34 12t2 38q-5 13 -9.5 30.5t-9.5 34.5q-5 19 -11 39h-368zM336 498v228q0 11 2.5 23t10 21.5t20.5 15.5t34 6h188q31 0 51.5 -14.5t20.5 -52.5v-227h-327z" />
    <glyph glyph-name="uniE600" unicode="&#xe600;" 
d="M867 448q-26 30 -63 30q-20 0 -38 -9q-8 -5 -14 -10q-11 4 -24 4q-29 0 -55 -23q-1 0 -2 -1l-3 -3q-6 2 -15 2q-20 0 -40 -12q-5 -2 -12 -8l-9 12q-15 20 -21 27q-25 31 -61 31q-23 0 -43 -13q-25 -17 -32.5 -45.5t5.5 -57.5q5 -10 13 -20l1 -1q9 -14 28.5 -40.5
t28.5 -40.5q6 -8 7 -9q-10 -6 -20 -14q-32 -31 -26.5 -70t44.5 -59q4 -1 14 -6q13 -6 17 -9q84 -52 204 -106q18 -8 36 -8q26 0 48 18q15 11 40 29q2 2 8 6l9 6q7 6 17 13q8 6 23 17t20 14q34 24 34 66q0 156 -119 290zM918 140q-12 -9 -34.5 -25.5t-25.5 -18.5
q-5 -4 -26 -19.5t-32 -23.5q-7 -5 -14 -5q-5 0 -12 3q-111 49 -196 101l-36 18q-26 14 -4 34q10 10 22 10q8 0 14 -3q3 -1 7.5 -3t6.5 -3q6 -1 9 -1q7 0 11 5q9 10 2 21q-1 2 -14 20q-64 90 -95 135q-7 9 -9 12q-9 19 7 30q5 3 10 3q9 0 17 -10q7 -8 19.5 -25.5t19.5 -25.5
q25 -30 49 -64q5 -6 10 -10q6 -3 11 -3q6 0 11 4q11 10 2 22q-2 4 -8.5 12t-9.5 13q-12 20 11 33q7 3 12 3q9 0 17 -12q10 -18 22 -28q5 -4 11 -4t11 4q11 8 4 22q-2 4 -7 11q-11 15 -1 25q10 8 18 8q6 0 12 -5q10 -8 19 -24q6 -12 16 -12q3 0 7 2q15 6 9 24q0 2 -1 2
q0 1 -1.5 5t-2 6t-0.5 5t1.5 5t5.5 4q4 3 10 3q11 0 20 -11q104 -117 104 -251q1 -11 -9 -18zM693 -29q-12 0 -20.5 -8.5t-8.5 -20.5v-11h-567v907h567v-302q0 -12 8.5 -20.5t20.5 -8.5t20.5 8.5t8.5 20.5v307q0 22 -15.5 37.5t-37.5 15.5h-578q-22 0 -37.5 -15.5
t-15.5 -37.5v-918q0 -22 15.5 -37.5t37.5 -15.5h578q22 0 37.5 15.5t15.5 37.5v17q0 12 -8.5 20.5t-20.5 8.5zM601 495q12 0 20.5 8.5t8.5 20.5v149q0 22 -15.5 37.5t-37.5 15.5h-394q-22 0 -37.5 -15.5t-15.5 -37.5v-517q0 -22 15.5 -37.5t37.5 -15.5h214q11 0 19.5 8.5
t9 20.5t-8.5 20.5t-20 8.5h-209v506h384v-143q0 -12 8.5 -20.5t20.5 -8.5zM440 745q12 0 20.5 8.5t8.5 20.5t-8.5 21t-20.5 9h-120q-12 0 -20.5 -8.5t-8.5 -21t8.5 -21t20.5 -8.5h120zM326 16q0 -22 16 -38t38.5 -16t38 16t15.5 38v0q0 23 -15.5 39t-38 16t-38.5 -16
t-16 -39z" />
    <glyph glyph-name="uniE601" unicode="&#xe601;" 
d="M892 817h-45v11q0 28 -20.5 48t-49.5 20h-18q-27 0 -46.5 -19.5t-19.5 -46.5v-13h-366v11q0 28 -20 48t-48 20h-16q-28 0 -48 -20t-20 -48v-11h-47q-27 0 -46.5 -20.5t-19.5 -49.5v-670q0 -29 19 -48.5t47 -19.5h244q10 0 17.5 7t7.5 17.5t-7.5 18t-17.5 7.5h-244
q-7 0 -12 5t-5 13v509h802v-172q0 -10 7 -17.5t17.5 -7.5t17.5 7.5t7 17.5v333q0 28 -20.5 49t-49.5 21zM743 830q0 7 4.5 11.5t11.5 4.5h18q8 0 14 -5.5t6 -12.5v-88q0 -7 -6 -12.5t-14 -5.5h-16q-7 0 -12.5 5.5t-5.5 12.5v90zM225 828q0 7 5 12.5t13 5.5h16q7 0 12.5 -5
t5.5 -13v-88q0 -8 -5.5 -13t-12.5 -5h-16q-8 0 -13 5t-5 13v88zM112 635v112q0 8 4.5 14t12.5 6h46v-27q0 -28 20 -48t48 -20h16q28 0 48 20t20 48v27h366v-27q0 -28 20 -48t48 -20h16q29 0 49.5 20.5t20.5 47.5v27h45q8 0 14.5 -6.5t6.5 -13.5v-112h-801zM825 358
q-7 0 -12 -1q-13 -2 -23 -8q-20 20 -48 20q-17 0 -34 -7q-7 -3 -12 -7q-18 14 -42 14q-8 0 -16 -1q-16 -4 -27 -9q-5 12 -10 30q-5 15 -12 34q-9 24 -26.5 37.5t-39.5 13.5q-10 0 -19 -3q-31 -8 -45 -33q-12 -22 -9 -49q1 -8 5 -24l1 -1q5 -19 31 -104q1 -5 4 -15t5 -16h-3
q-19 0 -36 -8q-38 -17 -45 -52q-6 -35 23 -65q7 -8 11 -11q14 -15 16 -17q69 -83 175 -182q23 -22 51 -22q12 0 25 4q21 8 52 17q4 1 11.5 3.5t11.5 3.5t12 4l10 3q36 11 57 18q37 11 49 48q54 157 -20 335q-10 23 -29 36.5t-42 13.5zM869 -10q-4 -13 -18 -17
q-11 -3 -37.5 -11.5t-41.5 -12.5q-71 -23 -76 -24q-5 -2 -9 -2q-8 0 -17 8q-102 94 -170 177q-3 4 -30 31q-23 24 7 38q7 3 16 3q13 0 25 -9q2 -2 6.5 -6t6.5 -5q7 -6 14 -6q4 0 8 2q12 7 10 22q-2 8 -8 26q-9 31 -26.5 90t-25.5 85q-3 10 -4 16q-3 23 18 28q2 2 6 2
q13 0 19 -18q4 -10 12 -33l11 -34q18 -49 29 -84q3 -8 7 -14q6 -9 15 -9q4 0 8 2q15 7 10 23q-1 4 -4.5 15t-5.5 17q-5 25 23 30q4 1 7 1q16 0 20 -21q4 -22 13 -36q6 -10 16 -10q3 0 8 2q14 4 12 21q-1 4 -4 15q-6 20 8 25q8 3 15 3q11 0 18 -11q7 -12 10 -32q3 -19 19 -19
q1 0 2 1q18 2 18 23v1v7v6q0 2 1 5.5t3.5 5t7.5 2.5h4q17 0 24 -19q67 -162 20 -300z" />
    <glyph glyph-name="uniE602" unicode="&#xe602;" 
d="M1018 96l-108 717h-1q-6 36 -28.5 57.5t-52.5 21.5h-616q-62 -5 -79 -77v-1l-131 -731h1q-3 -14 -3 -29v-24q0 -64 45 -109t109 -45h716q64 0 109 45t45 109v24q0 22 -6 42zM193 802q7 27 23 29h612q16 0 21 -28l93 -612q-34 17 -72 17h-716q-37 0 -71 -17zM963 30
q0 -39 -27 -66t-66 -27h-716q-39 0 -66 27t-27 66v24q0 39 27 66t66 27h716q30 0 54 -17.5t34 -45.5l4 -29h1v-1v-24zM255 73h-122q-13 0 -22 -9t-9 -22t9 -22t22 -9h122q13 0 22 9t9 22t-9 22t-22 9zM381 318h322q55 0 89 38q40 44 34 116q-3 26 -14 47.5t-29 36.5
t-33.5 24.5t-35.5 19.5q-8 61 -52 102.5t-103 41.5q-68 0 -114 -53q-36 0 -65.5 -22.5t-42.5 -57.5q-22 -7 -39 -15.5t-37 -23.5t-32.5 -38.5t-16.5 -54.5q-6 -50 26 -91q25 -30 65 -48.5t78 -21.5zM273 472q4 36 27 53.5t70 32.5l18 6l4 18q4 21 19 34.5t34 13.5q5 0 8 -1
l20 -3l11 16q28 42 75 42q39 0 67 -31t28 -74v-20l20 -9q43 -19 65.5 -36.5t25.5 -46.5q4 -46 -18 -70q-15 -18 -43 -18h-318q-27 3 -55.5 15.5t-44.5 32.5t-13 45z" />
    <glyph glyph-name="uniE603" unicode="&#xe603;" 
d="M940 56l-100 180v245q0 108 -64 194t-165 118q0 1 0.5 2t0.5 2q-1 41 -30 70t-70 29t-70 -29t-29 -70v-4q-76 -24 -133 -81q-97 -96 -97 -231v-245l-99 -181q-7 -13 1 -27q7 -13 23 -13h244q7 -61 52.5 -102t107.5 -41t107.5 41.5t51.5 101.5h246q15 0 23 14q8 13 0 27z
M512.5 -74q-37.5 0 -66.5 23.5t-37 58.5h206q-8 -35 -36.5 -58.5t-66 -23.5zM512 842q16 0 28.5 -10.5t15.5 -25.5q-20 2 -43 2h-1q-20 0 -44 -2q3 15 15.5 25.5t28.5 10.5zM154 70l80 146q3 5 3 13v252q0 113 81 193t194 80h1q113 0 193 -80t80 -193v-252q0 -7 3 -13
l81 -147h-716v1z" />
    <glyph glyph-name="uniE604" unicode="&#xe604;" horiz-adv-x="1025" 
d="M996 701q-12 0 -20 -8t-8 -20v-618q0 -7 -5 -11.5t-13 -4.5h-873q-8 0 -15 5.5t-7 10.5v658q0 6 6.5 11t15.5 5h758q8 0 13.5 -4.5t5.5 -11.5v-574q0 -12 8 -20t20 -8t20 8t8 20v574q0 30 -21.5 50.5t-52.5 20.5h-758q-32 1 -55 -20t-23 -51v-658q0 -29 23 -50.5
t55 -21.5h872q31 0 52.5 21.5t21.5 50.5v618q0 12 -8 20t-20 8zM576 548q11 0 19.5 8t8.5 19.5t-8.5 20t-19.5 8.5h-230q-11 0 -19.5 -8.5t-8.5 -20t8 -19.5t20 -8h230zM690 476h-460q-12 0 -20 -8.5t-8 -20t8 -19.5t20 -8h460q11 0 19.5 8t8.5 20t-8.5 20t-19.5 8zM690 346
h-460q-12 0 -20 -8.5t-8 -20t8 -19.5t20 -8h460q11 0 19.5 8t8.5 19.5t-8.5 20t-19.5 8.5zM690 211h-460q-12 0 -20 -8t-8 -19.5t8 -20t20 -8.5h460q11 0 19.5 8.5t8.5 20t-8.5 19.5t-19.5 8z" />
    <glyph glyph-name="uniE605" unicode="&#xe605;" 
d="M248 896q-92 0 -157 -77.5t-65 -186.5q0 -81 37 -147t99 -97l-25 -394v-2q0 -49 31.5 -84.5t76.5 -35.5t77 35.5t31 84.5v1l-24 393q59 28 97 87q44 71 44 159q0 109 -65 186.5t-157 77.5zM292 431l-20 -7l27 -433q0 -26 -16 -45t-37 -19q-22 0 -37.5 19t-15.5 45l27 434
l-20 7q-52 20 -85.5 75.5t-33.5 124.5q0 86 49 147.5t118 61.5t118 -61.5t49 -147.5q0 -70 -34.5 -126t-88.5 -75zM970.5 855q-11.5 0 -19.5 -8t-8 -19v-248q0 -51 -30 -92t-78 -57l-21 -7l28 -433q-1 -26 -16.5 -45t-37.5 -19t-37.5 19t-16.5 45l27 433l-21 6
q-50 15 -81.5 57t-31.5 93v247q0 12 -8 20t-19.5 8t-19.5 -8t-8 -20v-247q0 -63 36 -116.5t95 -79.5l-24 -390l-1 -2q0 -49 32 -84.5t77 -35.5t77 35.5t32 84.5v1l-24 393q57 26 91.5 78.5t34.5 115.5v247q0 12 -8 20t-19.5 8zM724.5 575q11.5 0 19.5 8t8 20v225q0 11 -8 19
t-19.5 8t-19.5 -8t-8 -19v-225q0 -12 8 -20t19.5 -8zM849.5 575q11.5 0 19.5 8t9 20v225q0 11 -8.5 19t-20 8t-19.5 -8t-8 -19v-225q0 -12 8 -20t19.5 -8z" />
    <glyph glyph-name="uniE606" unicode="&#xe606;" 
d="M512 896q-125 0 -213.5 -88.5t-88.5 -213.5q0 -86 44.5 -157.5t117.5 -110.5q-134 -44 -219 -160t-85 -261v-3v-2q1 -12 9 -20t20 -8t20 8.5t8 20.5v1v3q0 105 52 194t141 141t194 52q125 0 213.5 88.5t88.5 213.5t-88.5 213.5t-213.5 88.5zM512 349q-101 0 -173 72
t-72 173t72 173t173 72t173 -72t72 -173t-72 -173t-173 -72zM908 105q-46 91 -127 153q-9 7 -21 5.5t-19 -11t-5.5 -21t11.5 -18.5q72 -56 112 -136.5t40 -171.5v-3v-1q0 -12 8 -20.5t20 -8.5t20 8t9 20v1v4q0 106 -48 200z" />
    <glyph glyph-name="uniE607" unicode="&#xe607;" horiz-adv-x="1025" 
d="M863 193q-67 0 -114 -48l-312 201q14 38 14 78q0 52 -23 98l293 165q18 -28 47.5 -44t64.5 -16q55 0 94.5 39.5t39.5 95t-39.5 95t-95 39.5t-95 -39.5t-39.5 -95.5q0 -9 2 -19l-304 -171q-31 37 -75.5 58t-95.5 21q-93 0 -159 -66t-66 -159.5t66 -159.5t159 -66
q56 0 104.5 25.5t79.5 69.5l307 -197q-13 -30 -13 -64q0 -67 47 -114t113.5 -47t113.5 47t47 113.5t-47 113.5t-114 47zM833 837q31 0 53 -22t22 -53t-22 -53.5t-53.5 -22.5t-53.5 22.5t-22 53.5t22 53t54 22zM225 258q-69 0 -117.5 49t-48.5 118t48.5 117.5t117.5 48.5
t118 -48.5t49 -117.5t-49 -118t-118 -49zM863.5 -70q-42.5 0 -72.5 30t-30 72.5t30 72.5t72.5 30t72.5 -30t30 -72.5t-30 -72.5t-72.5 -30z" />
    <glyph glyph-name="uniE608" unicode="&#xe608;" horiz-adv-x="1031" 
d="M967 322q-34 16 -38.5 52t21.5 61q12 12 34 23q53 27 46 80q-14 65 -29 85q-21 34 -45 43t-63 -3q-3 0 -11.5 -3t-11.5 -3q-34 -4 -56.5 15t-22.5 53q0 5 2.5 17.5t2.5 22.5q9 42 -22 74q-49 57 -131 57q-23 0 -40 -17q-6 -6 -14.5 -20t-13.5 -20q-22 -34 -58 -37.5
t-62 26.5q-12 23 -17 28q-24 40 -68 40q-63 -11 -102 -34q-29 -16 -37 -37.5t-3 -53.5v-23q0 -51 -27 -74.5t-70 -10.5q-3 3 -11.5 5.5t-11.5 5.5q-34 0 -51 -11q-57 -49 -57 -137q0 -45 57 -79q42 -21 43.5 -57.5t-37.5 -62.5q-4 -4 -11.5 -7.5t-11.5 -3.5
q-11 -8 -17 -12.5t-11.5 -13.5t-5.5 -20q-8 -79 46 -142q19 -23 46 -25.5t50 8.5h23q26 0 41.5 -15.5t15.5 -41.5q0 -5 -3 -17.5t-3 -22.5q-24 -56 28 -91q44 -36 120 -45q51 -9 80 40q14 29 30 42.5t43.5 13.5t43.5 -13.5t30 -42.5q3 -6 9 -14.5t9 -14.5q11 -17 51 -17
q48 10 74 23q40 17 56.5 50.5t0.5 74.5q-17 38 4 63.5t64 21.5q5 0 16.5 -3t17.5 -3q52 -14 91 35q17 16 28 62q13 47 2.5 73.5t-53.5 52.5zM950 219q-3 -5 -5.5 -10.5t-6.5 -12.5l-5 -11q-4 -13 -15.5 -17.5t-24.5 0.5q-22 6 -68 6q-31 -3 -56 -20t-38.5 -42t-18.5 -54.5
t5 -54.5q7 -22 1.5 -32t-24.5 -20q-6 -3 -14.5 -5.5t-13.5 -5.5q-26 -8 -34 17q-36 72 -114 80q-91 8 -137 -74q-8 -16 -18 -19t-27 2q-6 3 -14.5 6t-13.5 5l-6 3q-23 11 -26.5 18t3.5 36q17 73 -26.5 122.5t-115.5 36.5q-42 -4 -54 5t-20 52q-9 26 17 34q50 17 68 63
q26 47 10 97t-67 79q-1 1 -9 5.5t-12 10t-1 13.5q0 23 22 68q6 6 29 6q45 -12 68 -6q117 25 108 159q0 5 -2.5 16t-1 17.5t9.5 11.5q20 14 68 23q6 0 10 -2.5t5.5 -4.5t4 -7.5t3.5 -8.5q38 -64 107 -71t120 49q3 3 8.5 11.5t8.5 10.5l3 6l2 5q1 1 3.5 5t3.5 4.5t4.5 2.5
t5.5 1t7 -1q1 0 6.5 -1.5t7.5 -2t7 -2t7 -2.5t7 -2.5t7 -3t6 -4t6 -5t4.5 -5.5t3.5 -6q4 -5 2 -11.5t-8 -11.5q-21 -69 20 -122.5t117 -53.5q34 0 51 11q18 9 29 -11q1 -3 3.5 -7.5t4 -7t2.5 -6t1 -7.5q9 -26 6.5 -33t-23.5 -24q-47 -31 -64 -78t1.5 -93t68.5 -74
q21 -14 11 -45zM512 640q-107 0 -181.5 -74.5t-74.5 -181.5t74.5 -181.5t181.5 -74.5t181.5 74.5t74.5 181.5t-74.5 181.5t-181.5 74.5zM506 196q-76 0 -132 58t-56 135.5t56.5 133t137.5 55.5t134.5 -53.5t53.5 -134.5q0 -85 -56 -139.5t-138 -54.5z" />
    <glyph glyph-name="uniE609" unicode="&#xe609;" 
d="M455 -11h-314q-7 0 -12 5t-5 12v496q0 27 8 52h187q30 0 51.5 21t21.5 51q0 112 -1 205q22 9 48 9h337q6 0 11 -5t5 -11v-475q0 -12 8 -20t20 -8t20 8t8 20v475q0 30 -21 51t-51 21h-337q-59 0 -107 -33q-29 -20 -118 -112.5t-108 -120.5q-38 -58 -38 -127v-496
q0 -31 21.5 -52.5t51.5 -21.5h315q11 0 19.5 8.5t8.5 19.5q-1 12 -9 20t-20 8zM335 792q1 -97 1 -166q0 -7 -5 -11.5t-12 -4.5h-157q24 30 79.5 88.5t93.5 93.5zM216 462q-12 0 -20 -8.5t-8 -20t8 -20t20 -8.5h488q11 0 19.5 8.5t8.5 20t-8 20t-20 8.5h-488zM482 345h-266
q-12 0 -20.5 -8.5t-8.5 -20t8.5 -20t20.5 -8.5h266q12 0 20 8.5t8 20t-8.5 20t-19.5 8.5zM806.5 137q-3.5 -8 0 -16t11.5 -11l94 -35l43 101q3 8 -0.5 16t-11.5 11.5t-16 0.5t-11 -11l-11 -27q-26 52 -75 83t-108 31q-84 0 -144 -60t-60 -144t60 -144t144 -60q62 0 113.5 34
t74.5 92q5 10 0.5 21t-15.5 15.5t-21.5 0t-15.5 -15.5q-17 -41 -54 -66t-82 -25q-61 0 -104.5 43.5t-43.5 104.5t43.5 104.5t104.5 43.5q43 0 78.5 -22.5t54.5 -60.5l-22 8q-8 4 -15.5 0t-11 -12z" />
    <glyph glyph-name="uniE60A" unicode="&#xe60a;" 
d="M320 98q-115 25 -189.5 118.5t-74.5 211.5q0 91 45 169t123 123.5t170 45.5q71 0 136.5 -29t113.5 -82q8 -8 19.5 -8.5t20 7.5t9 19.5t-7.5 19.5q-55 62 -131.5 95.5t-159.5 33.5q-107 0 -197.5 -53t-143.5 -143.5t-53 -197.5q0 -140 88 -248q87 -107 220 -137h6
q10 0 17.5 6t9.5 15q2 11 -4 21t-17 13zM397.5 667q-11.5 0 -19.5 -8.5t-8 -19.5v-196l-129 -150q-8 -9 -7 -20.5t10 -19.5q8 -7 18 -7q13 0 22 10l142 166v217q0 11 -8.5 19.5t-20 8.5zM848 253q57 47 57 121q0 66 -46.5 112.5t-112 46.5t-112 -46.5t-46.5 -112.5
q0 -74 57 -121q-79 -31 -127.5 -101.5t-48.5 -157.5q0 -12 1 -22l2 -26h549l2 26q1 10 1 22q0 87 -48.5 157.5t-127.5 101.5zM644 374q0 43 30 73t72.5 30t72.5 -30t30 -73q0 -40 -28 -70t-68 -32h-7h-7q-40 3 -67.5 32.5t-27.5 69.5zM525 2q3 88 65.5 149.5t150.5 64.5h3h2
h6q88 -2 150.5 -64t65.5 -150h-443z" />
    <glyph glyph-name="uniE60B" unicode="&#xe60b;" 
d="M404 205q-111 -1 -128 -1q17 10 33 19q27 15 41.5 24.5t35 27t30.5 38t10 44.5q0 46 -27.5 80.5t-85.5 34.5q-44 0 -73 -29q-15 -16 -23.5 -39t-9.5 -34.5t-1 -19.5q1 -11 9 -18.5t19 -7.5t19 8t7 19q0 35 19 54q13 13 35 13q58 0 58 -60q0 -14 -7 -26t-22.5 -23.5
t-27 -19t-33.5 -19.5q-22 -13 -33 -20t-26.5 -19t-21.5 -25t-6 -28q0 -11 8 -19q6 -6 13.5 -7.5t34.5 -1.5h18h45q13 0 26.5 0.5t24.5 0.5h21h14h5q11 0 19 8t7 19q1 12 -7 19.5t-20 7.5zM731 388q-107 0 -182.5 -75.5t-75.5 -182.5t75.5 -182.5t182.5 -75.5t182.5 75.5
t75.5 182.5t-75.5 182.5t-182.5 75.5zM731.5 -74q-84.5 0 -144.5 60t-60 144.5t60 144.5t144.5 60t144 -60t59.5 -144.5t-59.5 -144.5t-144 -60zM830 198l-123 -104l-51 51q-8 8 -19 8t-19 -8t-8 -19t8 -19l86 -86l161 136q8 8 9 19t-6 19.5t-18 9t-20 -6.5zM344 66h-239
q-7 0 -11.5 4t-4.5 11v503h792v-168q0 -11 7.5 -19t19 -8t19.5 8t8 19v329q0 29 -22 50.5t-51 21.5h-44v8q0 29 -21 50t-50 21h-18q-27 0 -46.5 -20t-19.5 -48v-11h-359v9q0 29 -20.5 49.5t-48.5 20.5h-16q-29 0 -49.5 -20.5t-20.5 -49.5v-9h-44q-29 0 -49.5 -21t-20.5 -51
v-664q0 -29 20 -49t50 -20h239q12 0 19.5 8t8 19t-7.5 19t-20 8zM717 828q0 5 3.5 9.5t9.5 4.5h18q6 0 11 -5t5 -12v-86q0 -6 -5 -11t-11 -5h-16q-7 0 -11 4.5t-4 11.5v89zM203 826q0 7 4.5 11.5t11.5 4.5h16q6 0 10.5 -4.5t4.5 -11.5v-87q0 -6 -4.5 -11t-10.5 -5h-16
q-6 0 -11 4.5t-5 11.5v87zM105 763h44v-24q0 -29 20.5 -49.5t49.5 -20.5h16q28 0 48.5 20.5t20.5 49.5v25h359v-25q0 -29 20 -49.5t49 -20.5h15q30 0 50.5 20.5t20.5 49.5v24h44q6 0 12.5 -5.5t6.5 -12.5v-107h-792v107q0 7 4.5 12.5t11.5 5.5zM523 341l13 81h99q11 0 19 8
t8 19t-8 19t-19 8h-143l-38 -199l23 9q14 24 46 55z" />
    <glyph glyph-name="uniE60C" unicode="&#xe60c;" horiz-adv-x="1025" 
d="M1021 328q3 28 3 56q0 103 -38.5 196.5t-111.5 165.5q-72 73 -166 111.5t-196 38.5v0h-12h-2h-3q-1 0 -3.5 -0.5t-3.5 -0.5h-8h-2h-2q-5 0 -9 -1h-1h-1h-1h-2q-1 0 -1 -1l-19 -1v-1q-170 -23 -292 -145q-121 -122 -144 -289h-1l-2 -23q-3 -23 -3 -50q0 -103 38.5 -196.5
t111 -166t166 -111t196.5 -38.5h11h3h4q2 0 3.5 0.5t4.5 0.5h4h2q6 0 10 1q5 0 8 1l23 2q129 18 235 98q9 7 11 18.5t-5 21t-18.5 11t-21.5 -5.5q-88 -67 -197 -86v15q0 103 -38.5 196.5t-111.5 166t-166 111t-196 38.5h-15q25 143 128.5 246.5t246.5 126.5v-15
q0 -103 38.5 -196.5t111 -166t166 -111t196.5 -38.5h12q-11 -69 -44 -133q-6 -10 -2.5 -21t14.5 -17q10 -5 21 -1.5t17 13.5q39 77 52 163zM56 405q8 0 21 1q93 0 177.5 -36.5t145.5 -97.5t97.5 -145.5t36.5 -177.5q0 -3 -0.5 -6.5t-0.5 -7.5v-7h-21h-12q-121 3 -223 64.5
t-161.5 165.5t-59.5 226v0v6v15zM949 362q-92 0 -176.5 36.5t-146 97.5t-97.5 145.5t-36 177.5v7v7v7h19q93 0 177.5 -36t145.5 -97t97 -145.5t36 -177.5v-21q-10 -1 -19 -1z" />
    <glyph glyph-name="uniE60D" unicode="&#xe60d;" horiz-adv-x="1025" 
d="M486 -47zM951 815h-278q-66 0 -127 -46q-20 -15 -34 -32q-30 33 -76.5 55.5t-94.5 22.5h-258q-28 0 -50.5 -17.5t-30.5 -40.5l-2 -4v-683l1 -3q7 -34 29.5 -55t52.5 -21h133h165q27 0 58.5 -12t43.5 -23v-2h3v0h53v5h2l-1 -5q5 10 33 22.5t58 12.5l321 -1q30 0 51 22
t21 53v677q0 32 -21 53.5t-52 21.5zM478 24q-52 23 -98 23h-164h-133q-9 0 -16.5 8t-10.5 21v666q9 17 27 17h258q51 0 101 -35q32 -22 41 -43v-660q-3 1 -5 3zM969 64q0 -8 -5.5 -14t-12.5 -6h-45h-275q-48 0 -92 -22v654h1q0 6 10 20t30 29q45 34 93 34h278q8 0 13 -5.5
t5 -13.5v-676z" />
    <glyph glyph-name="uniE60E" unicode="&#xe60e;" 
d="M416 161q110 0 203.5 49t147.5 134t54 184.5t-54 184t-147.5 134t-203.5 49.5t-203 -49t-147.5 -134t-54.5 -185q0 -74 32 -142.5t91 -120.5l-2 -180q0 -16 14 -25q6 -4 14 -4q9 0 15 5l174 105q33 -5 67 -5zM329 220l-139 -85l1 142q0 14 -11 23q-53 44 -82.5 103.5
t-29.5 124.5q0 84 46.5 156t127 113.5t175 41.5t174.5 -41.5t127 -113t47 -156.5q0 -84 -46.5 -155.5t-127 -113t-174.5 -41.5q-36 0 -69 5q-10 2 -19 -3zM1013 333q0 135 -97 238l-41 -39q81 -86 81 -199q0 -78 -41.5 -146.5t-114.5 -111.5q-15 -9 -14 -26l4 -93l-98 68
q-10 7 -21 5q-30 -5 -61 -5q-135 0 -235 83l-36 -44q116 -96 272 -96q29 0 58 4l137 -94q7 -5 16 -5q8 0 14 4q16 8 15 26l-7 133q80 51 124.5 130t44.5 168zM217 575q-19 0 -33 -14q-14 -13 -14 -33t14 -34q13 -14 33 -14t34 14t14 34q0 19 -14 33q-13 14 -34 14zM461 528
q0 20 -14 33q-13 14 -33 14t-34 -14q-14 -13 -14 -33q0 -19 14 -33q14 -15 34 -15q19 0 33 15q14 13 14 33zM608 480q20 0 34 15q14 13 14 33t-14 33q-14 14 -34 14q-19 0 -33 -14q-14 -13 -14 -33q0 -19 14 -33q13 -15 33 -15z" />
    <glyph glyph-name="uniE60F" unicode="&#xe60f;" 
d="M54 386q0 85 30.5 164t87.5 142q7 8 6.5 19.5t-8.5 18.5t-19.5 6.5t-19.5 -8.5q-63 -71 -97 -159.5t-34 -183.5q0 -96 34.5 -185t98.5 -160q9 -9 21 -9q10 0 18 8t8.5 19t-6.5 20q-58 63 -89 142.5t-31 165.5zM892 728q-7 8 -18.5 8.5t-19.5 -7t-9 -18.5t7 -19
q57 -64 87 -143t30 -164q0 -86 -30.5 -165.5t-88.5 -142.5q-7 -9 -6.5 -20t8.5 -19q8 -7 18 -7q12 0 20 9q65 70 99.5 159.5t34.5 185.5q0 95 -34 183.5t-98 159.5zM214 385q0 114 76 200q8 8 7 19t-9 18.5t-19.5 7t-18.5 -8.5q-91 -101 -91 -236q0 -138 92 -238q8 -9 20 -9
q11 0 19 7q9 8 9.5 19t-7.5 20q-78 85 -78 201zM774 621q-7 9 -18.5 9.5t-20 -7t-9 -18.5t7.5 -20q76 -84 76 -200t-78 -201q-8 -9 -7.5 -20.5t9.5 -18.5q7 -7 18 -7q12 0 20 8q93 101 93 239q0 136 -91 236zM369 385q0 55 36 96q8 8 7.5 19t-9 18.5t-20 7t-18.5 -8.5
q-51 -57 -51 -132q0 -77 53 -134q8 -9 20 -9q10 0 18 7q9 8 9.5 19.5t-7.5 19.5q-38 42 -38 97zM620 519.5q-8 -7.5 -8.5 -18.5t6.5 -20q37 -40 37 -96t-39 -98q-7 -8 -6.5 -19.5t8.5 -18.5q8 -8 19 -8t19 9q54 57 54 135q0 76 -51 133q-8 8 -19.5 8.5t-19.5 -7z" />
    <glyph glyph-name="uniE610" unicode="&#xe610;" 
d="M1006 472q-30 38 -97 38h-303q-11 0 -18 2q1 12 25 59q40 79 40 117q0 74 -40.5 126.5t-88.5 52.5q-31 0 -49 -24q-17 -22 -17 -59v-1q1 -42 -19 -87t-49 -79t-62 -63t-57 -45.5t-35 -20.5q-40 -13 -78 -13h-83q-31 -1 -53 -23t-22 -53v-423q0 -31 22 -53t53 -22h676
q69 0 113.5 25.5t57.5 72.5q54 190 99 396q10 46 -15 77zM174 -43h-99q-8 0 -13.5 5.5t-5.5 13.5v423q0 8 5.5 13.5t13.5 5.5h108q8 0 13.5 -5.5t5.5 -13.5v-423q0 -8 -5.5 -13.5t-13.5 -5.5h-9zM966 407q-42 -196 -98 -393q-5 -18 -19.5 -30.5t-33.5 -17.5t-34 -7t-30 -2
h-495q2 9 2 19v423q0 18 -8 35q3 1 4 1q22 8 65 39t83 72q114 120 112 238q0 16 5 24q2 2 5 2q21 0 46.5 -34.5t25.5 -87.5q0 -26 -34 -92q-11 -23 -16 -33.5t-10.5 -28t-4.5 -30t8 -23.5q18 -28 67 -28h303q40 0 53 -17q8 -8 4 -29z" />
    <glyph glyph-name="uniE611" unicode="&#xe611;" 
d="M862 896h-570h-4h-4h-122q-31 0 -52.5 -22t-21.5 -53v-874q0 -31 21.5 -53t52.5 -22h700q31 0 53 22t21 53v874q0 31 -21.5 53t-52.5 22zM260 -72h-98q-8 0 -13.5 5.5t-5.5 13.5v874q0 8 5.5 13.5t13.5 5.5h98v-912zM880 -53q0 -8 -5.5 -13.5t-12.5 -5.5h-546v912h546
q7 0 12.5 -5.5t5.5 -13.5v-874zM685 389q38 37 38 91t-37.5 91.5t-90.5 37.5t-91 -37.5t-38 -91.5q0 -53 39 -91q-58 -27 -94 -81t-36 -120q0 -12 8 -20t19.5 -8t20 8.5t8.5 19.5q0 68 48 116t115.5 48t115.5 -48t48 -116q0 -12 8.5 -20t20 -8t19.5 8t8 20q1 66 -35 120
t-94 81zM601 408h-6h-6q-28 2 -47 23t-19 49q0 30 21 51t51 21t51 -21t21 -51q0 -29 -19 -49.5t-47 -22.5z" />
    <glyph glyph-name="uniE612" unicode="&#xe612;" 
d="M114 783v-798q0 -23 16.5 -39.5t39.5 -16.5h769q-12 0 -20.5 -8.5t-8.5 -20.5v968q0 -12 8.5 -20.5t20.5 -8.5h-769q-23 0 -39.5 -16.5t-16.5 -39.5zM57 783q0 46 33 79.5t80 33.5h769q12 0 20 -8.5t8 -19.5v-968q0 -11 -8.5 -19.5t-19.5 -8.5h-769q-47 0 -80 33t-33 80
v798zM512 366v530l57 -57h-314q13 0 21 8t8 20v-503q-5 17 -22.5 26.5t-33.5 3.5v1l142 94q32 20 64 -1l135 -92v-2q-17 6 -34 -3.5t-22 -25.5zM228 867q0 12 8 20.5t19 8.5h314v-540q0 -12 -7 -15.5t-16 2.5l-144 98l-150 -98q-10 -7 -17 -3t-7 16v511zM114 -14
q0 -24 16.5 -40.5t39.5 -16.5h769q-12 0 -20.5 -8.5t-8.5 -20.5v172q0 -12 8.5 -20.5t20.5 -8.5h-769q-23 0 -39.5 -17t-16.5 -40zM57 -14q0 47 33 80.5t80 33.5h769q12 0 20 -8.5t8 -19.5v-172q0 -12 -8.5 -20t-19.5 -8h-769q-47 0 -80 33t-33 81z" />
    <glyph glyph-name="uniE613" unicode="&#xe613;" 
d="M763 745q-15 4 -31 4q-43 0 -76.5 -26.5t-44.5 -67.5q-13 -50 13.5 -95t76.5 -58q17 -4 32 -4q43 0 76.5 26t44.5 68q13 51 -13.5 95.5t-77.5 57.5zM800 606q-6 -23 -25 -37.5t-42 -14.5q-9 0 -18 2q-28 7 -42.5 32t-7.5 53q6 23 25 37.5t42 14.5q8 0 18 -2
q28 -7 42.5 -32t7.5 -53zM968 877q-24 22 -74 19q-90 -6 -224.5 -81.5t-231.5 -182.5q-27 3 -53 3q-55 0 -109.5 -15t-94.5 -38.5t-67 -50t-33 -49.5q-8 -30 7 -52q9 -14 28.5 -24.5t36 -15t47.5 -10.5q40 -7 64 -15q-5 -63 59 -123q-3 -7 -5 -13q-14 -41 3 -57q9 -9 24 -9
q19 0 55 20q73 -50 128 -50q10 0 19 1q6 -11 19 -42q11 -26 17 -39.5t18 -31.5t26 -26.5t31 -8.5q14 0 31 9q48 23 80.5 123.5t11.5 206.5q3 4 17 22q140 185 186 334q43 143 -16 196zM135 460q-2 2 0 8q3 11 23 29t51.5 37t79 32.5t96.5 13.5h8q-90 -106 -114 -161
q-21 6 -68 16q-69 13 -76 25zM380 234q41 98 97 162q35 39 64 58.5t44 19.5q4 0 5 -2q2 -1 2 -6.5t-3 -16.5t-9.5 -24.5t-20 -33t-31.5 -40.5q-30 -34 -71.5 -65.5t-76.5 -51.5zM716 136q-12 -39 -27.5 -63t-24.5 -28q-4 -2 -6 -2q-6 0 -14 14q-9 13 -27 56q-12 29 -16 38
q58 29 131 113q3 -65 -16 -128zM930 697q-42 -139 -176 -316q-122 -162 -195 -187q-46 -15 -106 21q71 48 116 99q54 60 71 110q21 60 -13 90q-17 15 -41 15q-65 0 -150 -96q-49 -55 -89 -137q-33 36 -27 73l2 6q9 33 42.5 79t100.5 124l4 4l22 26q94 98 214.5 162.5
t192.5 69.5q27 2 33 -5q13 -11 14.5 -43.5t-15.5 -94.5zM459 100q-9 7 -20.5 4.5t-17.5 -12.5l-81 -126l-25 86q-4 13 -18 18q-13 5 -25 -3l-35 -24l23 47q7 14 -1 27t-24 13l-121 2l90 96q7 9 6.5 20.5t-8.5 19.5t-19.5 7.5t-19.5 -9.5l-133 -141q-12 -13 -5 -30t25 -17
l141 -2l-49 -104q-10 -20 7 -33q16 -14 34 -2l89 62l31 -107q5 -17 23 -20h4q15 0 24 13l114 177q6 9 3.5 20.5t-12.5 17.5z" />
    <glyph glyph-name="uniE614" unicode="&#xe614;" horiz-adv-x="1025" 
d="M850 431q-10 0 -17 -7t-7 -16v-169q-60 53 -113 53q-25 0 -86 -37q-60 -35 -83 -38q-25 22 -35 31q-39 35 -61 53.5t-55.5 42t-64.5 34t-62 10.5q-62 0 -167 -83q-26 -21 -51 -44v494q0 6 5.5 11t12.5 5h745q7 0 11 -5t4 -11q0 -10 7 -17t17 -7t17 7t7 17q0 26 -18.5 45
t-44.5 19h-745q-27 0 -46.5 -19t-19.5 -45v-741q0 -27 19.5 -46t46.5 -19h745q26 0 44.5 19t18.5 46v394q0 9 -7 16t-17 7zM651 215q51 30 62 30q29 0 61.5 -25t51.5 -50v-99q-113 7 -239 109q21 9 64 35zM811 -3h-745q-7 0 -13 5t-6 12v182q50 49 114.5 97t104.5 48
q25 0 50 -9t55 -30.5t49.5 -38t56.5 -50.5l60 -53q20 -17 60 -47t70.5 -45t73 -28.5t85.5 -15.5v-10q0 -7 -4.5 -12t-10.5 -5zM468 605q-11 20 -31 32t-43 12q-11 0 -22 -4q-35 49 -93 49q-40 0 -70.5 -25t-39.5 -63q-30 -7 -50.5 -30t-24.5 -53q-2 -11 5 -19t18 -8h417
q12 0 19 10t3 22q-11 29 -34.5 50t-53.5 27zM153 543q14 17 37 18q10 1 16.5 7t6.5 16q2 26 21 44t45 18q20 0 36.5 -11t24.5 -29q4 -10 15 -14q10 -3 19 3q9 5 20 5q27 0 35 -25q5 -15 21 -16q22 -1 40 -16h-337zM1014 777q-9 10 -25 10q-38 0 -136 -72q-86 -65 -152 -130
q-64 -64 -77 -107q-2 -6 -3 -14q-23 -2 -42 -20q-12 -12 -17 -42q-2 -15 -5 -23.5t-15.5 -20t-34.5 -19.5q-18 -6 -16 -25q1 -8 7 -14t14 -7h2q3 0 6.5 -0.5t8.5 -0.5t11.5 -0.5t13.5 -0.5q88 0 122 34q29 29 29 59q46 9 117 80q74 74 141 167q34 48 48 78q23 48 3 68z
M692 431q-4 0 -7 1q-4 5 -8 8q-4 5 -8 8q-3 7 0 16q4 14 19 35l48 -48q-29 -20 -44 -20zM642 360q-14 -14 -53 -19q13 19 20 54q2 14 4 16q6 7 12 7q4 0 10 -3q3 -5 7 -9q5 -5 11 -9q4 -6 4 -10q2 -11 -15 -27zM914 645q-62 -83 -126 -147q-8 -9 -16 -16l-53 53q0 1 15 16
q64 64 147 126q55 41 89 57q-14 -31 -56 -89z" />
    <glyph glyph-name="uniE615" unicode="&#xe615;" 
d="M791 243q-11 0 -19 -7.5t-8 -19.5v-234q0 -8 -5 -15t-11 -7h-604q-6 0 -11.5 6.5t-5.5 15.5v130v2h4q28 0 48 19.5t20 47.5v1q0 28 -20 48t-48 20h-4v60h4q28 0 48 20t20 48v1q0 28 -20 48t-48 20h-4v58h4q28 0 48 20t20 48q0 29 -20 48.5t-48 19.5h-4v151q0 6 5 11t11 5
h605q7 0 11.5 -4.5t4.5 -11.5v-26q0 -11 8 -19t19 -8t19 8t8 19v26q0 29 -20.5 49.5t-49.5 20.5h-604q-29 0 -49.5 -20.5t-20.5 -49.5v-151h-6q-28 0 -48 -20t-20 -48v-1q0 -28 20 -47.5t48 -19.5h6v-59h-6q-28 0 -48 -19.5t-20 -48.5q0 -28 20 -48t48 -20h6v-60h-6
q-28 0 -48 -20t-20 -48v-1q0 -28 20 -47.5t48 -19.5h6v-2v-130q0 -31 20.5 -53.5t49.5 -22.5h604q29 0 49.5 22.5t20.5 53.5v234q0 12 -8 19.5t-19 7.5zM54 572v1q0 6 4 10t10 4h63q6 0 10 -4t4 -10v-1q0 -5 -4 -9.5t-10 -4.5h-63q-6 0 -10 4.5t-4 9.5zM54 378q0 6 4 10.5
t10 4.5h63q6 0 10 -4.5t4 -10.5t-4 -10t-10 -4h-63q-6 0 -10 4t-4 10zM54 181v1q0 6 4 10t10 4h63q6 0 10 -4t4 -10v-1q0 -5 -4 -9.5t-10 -4.5h-63q-6 0 -10 4.5t-4 9.5zM701 659q0 11 -7.5 19t-19.5 8h-444q-11 0 -19 -8t-8 -19t8 -19t19 -8h444q12 0 19.5 8t7.5 19z
M230 554q-11 0 -19 -8t-8 -19t8 -19t19 -8h308q11 0 19 8t8 19t-8 19t-19 8h-308zM1003 631l-72 72q-20 21 -50 21t-50 -21l-29 -28l-104 -103l1 -1l-259 -259q-10 -10 -16 -23q-1 -3 -1 -4l-81 -206v-5q0 -15 10.5 -26t25.5 -11h6l200 85q16 5 29 18l390 390q21 21 21 50.5
t-21 50.5zM868 666q6 5 13.5 5t12.5 -5l71 -72q6 -5 6 -13t-6 -13l-28 -28l-97 97zM802 599l96 -96l-28 -28l-96 96zM448 203l56 -56l-93 -39zM575 178l-3 -3q-3 -1 -4 -1l-3 -1h-3q-7 0 -13 5l-71 72q-6 5 -6 12.5t6 12.5l258 259l97 -97z" />
    <glyph glyph-name="uniE616" unicode="&#xe616;" 
d="M937 662l-147 147q-12 12 -29 12t-29 -12l-578 -578q-4 -4 -5 -10l-73 -242q-4 -14 6.5 -24.5t24.5 -6.5l242 73q5 1 10 5v1l20 19l558 558q12 12 12 29t-12 29zM136 8l55 185l130 -130zM361 98l-135 135l450 451l135 -136zM846 583l-135 135l50 51l135 -136z" />
    <glyph glyph-name="uniE617" unicode="&#xe617;" horiz-adv-x="1028" 
d="M608 423q-20 0 -34 -13.5t-14 -34.5q0 -19 13.5 -33t34.5 -14q19 0 33 13.5t14 33.5t-14 34t-33 14zM422 423q-20 0 -34 -13.5t-14 -34.5q0 -19 13.5 -33t34.5 -14q19 0 33 13.5t14 33.5t-14 34t-33 14zM236 423q-20 0 -34 -13.5t-14 -34.5q0 -19 13.5 -33t34.5 -14
q20 0 33.5 13.5t13.5 33.5t-14 34t-33 14zM944 853h-673q-34 0 -58.5 -24.5t-24.5 -58.5v-28q0 -8 6.5 -14t15.5 -6t14.5 5.5t5.5 14.5v28q0 16 12.5 28.5t28.5 12.5h673q16 0 28.5 -12.5t12.5 -28.5v-413q0 -17 -12.5 -29t-28.5 -12h-28q-8 0 -14 -6t-6 -15t6 -14.5
t14 -5.5h28q34 0 58.5 24.5t24.5 58.5v412q0 34 -24.5 58.5t-58.5 24.5zM758 664h-673q-34 0 -58.5 -24.5t-24.5 -59.5v-411q0 -33 24.5 -58t58.5 -27h79q9 0 14.5 -6t5.5 -15v-130v-1q4 -11 9 -14q7 -3 12 -3q7 0 8 1q7 4 9 7l107 154q6 8 17 8h412q34 0 58.5 24.5
t24.5 59.5v411q0 35 -24.5 59.5t-58.5 24.5zM799 171q0 -17 -12.5 -29t-28.5 -12h-393v-2h-29q-20 0 -34 -17l-77 -109v85q0 17 -12 29t-29 12h-99q-16 0 -28.5 12t-12.5 29v413q0 17 12.5 29t28.5 12h673q16 0 28.5 -12t12.5 -29v-411z" />
    <glyph glyph-name="uniE618" unicode="&#xe618;" 
d="M923 896h-822q-31 0 -53 -22t-22 -53v-874q0 -31 22 -53t53 -22h822q31 0 53 22t22 53v874q0 31 -22 53t-53 22zM942 -53q0 -8 -5.5 -13.5t-13.5 -5.5h-822q-8 0 -13.5 5.5t-5.5 13.5v874q0 8 5.5 13.5t13.5 5.5h822q8 0 13.5 -5.5t5.5 -13.5v-874zM806 648h-351
q-12 0 -20.5 -8.5t-8.5 -20t8.5 -20t20.5 -8.5h351q12 0 20 8.5t8 20t-8 20t-20 8.5zM806 416h-351q-12 0 -20.5 -8.5t-8.5 -20t8.5 -20t20.5 -8.5h351q12 0 20 8.5t8 20t-8 20t-20 8.5zM806 184h-351q-12 0 -20.5 -8.5t-8.5 -20t8.5 -20t20.5 -8.5h351q12 0 20 8.5t8 20
t-8 20t-20 8.5zM263 462l-24 -46l-51 -8l37 -37l-8 -51l46 23l47 -23l-8 51l36 37l-51 8zM263 694l-24 -46l-51 -8l37 -37l-8 -51l46 23l47 -23l-8 51l36 37l-51 8zM287 180l-24 46l-24 -46l-51 -9l37 -37l-8 -51l46 23l47 -23l-8 51l36 37z" />
    <glyph glyph-name="uniE619" unicode="&#xe619;" 
d="M832 612h-688q-11 0 -19 8t-8 19t8 19t19 8h688q11 0 19 -7.5t8 -19t-8 -19.5t-19 -8zM690 502h-546q-11 0 -19 8t-8 19t8 19t19 8h546q11 0 19 -8t8 -19t-8 -19t-19 -8zM398 392h-254q-11 0 -19 8t-8 19t8 19t19 8h254q11 0 19 -8t8 -19t-8 -19t-19 -8zM774 118
q-11 0 -18 7q-8 8 -8.5 19t6.5 19q28 31 70 31q40 0 68 -29q8 -8 7.5 -19t-8.5 -19t-19 -7.5t-19 8.5q-12 12 -29 12q-18 0 -30 -13q-8 -9 -20 -9zM713 181q-11 0 -18 7q-8 8 -8.5 19.5t7.5 19.5q53 55 130 55q75 0 128 -53q8 -8 8 -19t-8 -19t-19.5 -8t-19.5 8
q-37 37 -89 37q-54 0 -91 -39q-8 -8 -20 -8zM650 243q-11 0 -19 8t-8.5 19t7.5 19q80 82 194 82q113 0 192 -81q8 -8 8 -19t-8 -19t-19 -8t-19 8q-64 64 -154 64q-92 0 -155 -65q-8 -8 -19 -8zM903 -42h-832q-30 0 -50.5 21t-20.5 51v708q0 30 21 51t50 21h832
q30 0 51.5 -21.5t21.5 -50.5v-265q0 -11 -8 -19t-19 -8t-19 8t-8 19v265q0 7 -6 12.5t-13 5.5h-832q-7 0 -12 -5.5t-5 -12.5v-708q0 -8 5 -13t12 -5h832q8 0 13.5 5.5t5.5 12.5v36q0 11 8 19t19 8t19 -8t8 -19v-36q0 -30 -21.5 -51t-51.5 -21zM270 115h-97q-20 0 -34.5 14.5
t-14.5 35.5v97q0 20 14.5 34.5t34.5 14.5h97q20 0 35 -14.5t15 -34.5v-97q-1 -21 -15.5 -35.5t-34.5 -14.5zM178 169h87v88h-87v-88zM508 115h-97q-20 0 -34.5 14.5t-14.5 35.5v97q0 20 14.5 34.5t34.5 14.5h97q21 0 35.5 -14.5t14.5 -34.5v-97q0 -21 -14.5 -35.5
t-35.5 -14.5zM416 169h88v88h-88v-88z" />
    <glyph glyph-name="uniE61A" unicode="&#xe61a;" horiz-adv-x="1025" 
d="M410 537h102q18 0 31.5 13t13.5 32v102q0 18 -13.5 31.5t-31.5 13.5h-102q-19 0 -32 -13.5t-13 -31.5v-102q0 -19 13 -32t32 -13zM419 675h84v-84h-84v84zM636 537h102q19 0 32.5 13t12.5 32v102q0 18 -13 31.5t-32 13.5h-102q-18 0 -31.5 -13.5t-13.5 -31.5v-102
q0 -19 13.5 -32t31.5 -13zM646 675h83v-84h-83v84zM410 290h102q18 0 31.5 13.5t13.5 31.5v102q0 19 -13.5 32t-31.5 13h-102q-19 0 -32 -13t-13 -32v-102q0 -18 13 -31.5t32 -13.5zM419 428h84v-84h-84v84zM636 290h102q19 0 32.5 13.5t12.5 31.5v102q0 19 -13 32t-32 13
h-102q-18 0 -31.5 -13t-13.5 -32v-102q0 -18 13.5 -31.5t31.5 -13.5zM646 428h83v-84h-83v84zM1023 -21q-19 59 -71 95v12q0 36 -21 66t-54 42v554q0 32 -21 54t-51 22h-446q-30 0 -51.5 -22.5t-21.5 -53.5v-485q-27 13 -56 13q-55 0 -94.5 -39.5t-39.5 -94.5q0 -30 13 -58
q-37 -12 -65.5 -39.5t-41.5 -64.5q-5 -13 3 -24.5t22 -11.5h970q14 0 22 11t4 24zM359 770h446q7 0 12 -6.5t5 -15.5v-548q-31 -4 -56 -24t-37 -49q-56 19 -118 19q-89 0 -168 -39q-11 27 -33.5 45.5t-50.5 24.5q-7 22 -19 40v531q0 9 5.5 15.5t13.5 6.5zM74 -2q33 38 83 40
q18 0 24.5 17.5t-6.5 29.5q-25 24 -25 57t23.5 56t56.5 23q30 0 52.5 -20t25.5 -50q1 -11 9 -18t18 -7q25 0 43 -17.5t19 -42.5q1 -15 14 -23q14 -7 27 1q79 49 172 49q66 0 128 -26q12 -6 24 2q12 7 13 21q2 24 19.5 40.5t41.5 16.5q26 0 43.5 -18t17.5 -43q0 -9 -2 -17
q-6 -22 13 -32q27 -14 44 -39h-878z" />
    <glyph glyph-name="uniE61B" unicode="&#xe61b;" 
d="M847 -69h-788q-1 2 -1 3v835q0 1 1 3h143v-7q0 -23 17 -40.5t41 -17.5h386q24 0 41 17.5t17 41.5v6h142q1 -2 1 -3v-333q0 -12 8.5 -20.5t20.5 -8.5t20.5 8.5t8.5 20.5v334q0 25 -17 42.5t-41 17.5h-143v7q0 24 -17 41t-41 17h-386q-24 0 -41 -17t-17 -41v-7h-144
q-24 0 -41 -17.5t-17 -43.5v-835q0 -25 17 -43t41 -18h789q12 0 20.5 8.5t8.5 20.5t-8.5 20.5t-20.5 8.5zM260 837h386v-71h-386v71zM316 83q13 0 21.5 8.5t7.5 20.5q0 78 55 133t133 55q6 0 10 2q63 3 106.5 49.5t43.5 109.5q0 66 -47 113t-113 47t-112.5 -47t-46.5 -113
q0 -77 59 -125q-65 -29 -105.5 -89.5t-40.5 -134.5q0 -12 9 -20.5t20 -8.5zM533 562q42 0 72 -29.5t30 -71.5t-30 -72t-72 -30t-71.5 30t-29.5 72t29.5 71.5t71.5 29.5zM135 144q0 -12 8.5 -20.5t20.5 -8.5t20.5 8.5t8.5 20.5q0 65 46.5 111.5t111.5 46.5q12 0 20.5 8.5
t8.5 20.5v1q0 12 -8.5 20.5t-20.5 8.5q-34 0 -58.5 24.5t-24.5 59t24 59t59 24.5q12 0 20.5 9t8.5 21t-8.5 20.5t-20.5 8.5q-59 0 -100.5 -42t-41.5 -100q0 -64 48 -106q-55 -27 -88.5 -79.5t-33.5 -115.5zM1022 232q-7 23 -31 26l-101 15l-45 92q-11 21 -34.5 21t-34.5 -21
l-45 -92l-101 -15q-24 -3 -31.5 -25.5t10.5 -39.5l73 -71l-17 -101q-3 -17 8 -31q12 -14 29 -14q10 0 18 5l91 47l90 -47q9 -5 18 -5q18 0 29 14t8 31l-17 101l73 71q17 16 10 39zM892 156q-15 -14 -11 -34l12 -71l-64 34q-18 9 -36 0l-64 -34l12 72q3 20 -11 33l-52 51
l72 10q20 3 29 21l32 65l32 -65q9 -18 29 -21l72 -10z" />
    <glyph glyph-name="uniE61C" unicode="&#xe61c;" 
d="M70 362v450q0 45 19.5 64.5t63.5 19.5h718q44 0 63.5 -19.5t19.5 -64.5v-900q0 -27 -4.5 -31.5t-31.5 -4.5h-816q-27 0 -31.5 4.5t-4.5 31.5q4 147 4 450zM512 -52h343q18 0 25 7t7 25v577q0 18 -7 25t-25 7h-682q-18 0 -25 -7t-7 -25v-581q0 -18 7 -25t25 -7
q112 4 339 4zM516 661h343q18 0 25 7t7 25v87q0 33 -5.5 38.5t-38.5 5.5h-391h-279q-20 0 -28 -6.5t-8 -25.5v-87q0 -36 5.5 -42t38.5 -6q112 4 331 4zM512 346h-124q-20 0 -33.5 10.5t-13.5 25.5q0 36 47 36h252q22 0 34.5 -10t12.5 -26q0 -15 -13.5 -25.5t-33.5 -10.5
h-128zM516 183h127q19 0 31.5 -9t12.5 -23q0 -16 -11 -28t-29 -12h-266q-18 0 -29 12t-11 28q0 15 11.5 23.5t31.5 8.5h132z" />
    <glyph glyph-name="uniE61D" unicode="&#xe61d;" 
d="M2 353v363q0 109 109 109h493h25q13 0 21 -8.5t8 -20.5q5 -21 -21 -38q-12 -4 -41 -4h-477q-31 0 -38.5 -7.5t-7.5 -38.5v-715q0 -31 9.5 -40.5t40.5 -9.5h719q28 0 37 9t9 37v481q0 21 4 33q4 13 13 21t21 8q27 0 33 -33v-21v-493q0 -113 -113 -113h-727
q-113 0 -113 113q-4 129 -4 368zM934 896q52 0 75 -46q23 -40 -4 -88q-8 -12 -25 -29l-493 -493q-43 -43 -88 -55q-9 -3 -36 -13.5t-43 -15.5q-27 -6 -42 9q-18 17 -4 37q52 128 117 192q59 58 125 124t146.5 147.5t125.5 126.5l75 75q37 29 71 29zM880 733q-6 11 -17 17
q-11 11 -21 -9l-422 -422q-6 -5 -8 -8.5t-2 -9t6 -11.5t11.5 -6t9 2.5t8.5 7.5l422 422q4 9 13 17z" />
    <glyph glyph-name="uniE61E" unicode="&#xe61e;" 
d="M447 182q-11 0 -22 11l-169 169q-22 22 -4 40t40 -4q16 -15 44.5 -43t51 -50.5t41.5 -43.5q11 -10 16.5 -10t16.5 10l281 282q16 16 26 18.5t21 -8.5q10 -11 7.5 -20.5t-18.5 -25.5l-307 -307q-6 -18 -25 -18zM512 -128q-138 0 -256 69t-187 187t-69 256t69 256t187 187
t256 69t256 -69t187 -187t69 -256t-69 -256t-187 -187t-256 -69zM512 831q-90 0 -173 -35.5t-143 -95.5t-95.5 -143t-35.5 -173t35.5 -173t95.5 -143t143 -95.5t173 -35.5t173 35.5t143 95.5t95.5 143t35.5 173t-35.5 173t-95.5 143t-143 95.5t-173 35.5z" />
    <glyph glyph-name="uniE61F" unicode="&#xe61f;" 
d="M978 746q-2 18 -15.5 30t-31.5 12h-115v46q0 26 -18.5 44t-43.5 18h-480q-26 0 -44 -18t-18 -44v-46h-116q-18 0 -31.5 -12t-15.5 -30q-10 -73 18 -159q43 -129 158 -204q6 -4 13 -5q23 -58 60 -105q69 -89 159 -112q-4 -10 -4 -22q0 -35 32 -52v-154h-214
q-12 0 -20.5 -8.5t-8.5 -20.5t8.5 -20.5t20.5 -8.5h485q12 0 20.5 8.5t8.5 20.5t-8.5 20.5t-20.5 8.5h-213v155q29 17 29 51q0 11 -4 21q92 22 162 112q38 49 60 107q6 1 11 4q116 76 158 204q28 86 19 159zM122 605q-21 66 -17 125h107v-219q0 -23 3 -48q-65 58 -93 142z
M685 308q-75 -96 -168 -96h-3q-95 0 -170 96q-35 45 -54.5 99t-19.5 104v323q0 4 4 4h480q4 0 4 -4v-326q0 -50 -19.5 -103t-53.5 -97zM904 605q-27 -83 -91 -141q3 23 3 44v222h105q5 -59 -17 -125z" />
    <glyph glyph-name="uniE620" unicode="&#xe620;" 
d="M1020 5l-271 271q63 99 63 216q0 110 -54.5 203t-147.5 147t-202.5 54t-202.5 -54t-147 -147t-54 -203t54 -203t147 -147t203 -54q111 0 206 57l273 -273zM154 492q0 105 74.5 179t179.5 74t179 -74t74 -179t-74 -179t-179 -74t-179.5 74t-74.5 179z" />
    <glyph glyph-name="uniE621" unicode="&#xe621;" 
d="M1024 288l-192 192v288h-128v-160l-192 192l-512 -512v-32h128v-320h320v192h128v-192h320v320h128v32z" />
    <glyph glyph-name="uniE622" unicode="&#xe622;" 
d="M863 545l117 146l-117 146h-468q-24 0 -41.5 -17t-17.5 -41v-176q0 -24 17.5 -41t41.5 -17h58v-59h-292l-117 -146l117 -146h292v-238q0 -23 16.5 -39t38.5 -16h8q22 0 38.5 16t16.5 39v238h234q24 0 41 17t17 41v176q0 24 -17 41t-41 17h-234v59h292z" />
    <glyph glyph-name="uniE623" unicode="&#xe623;" 
d="M950 832h-746q-31 0 -53.5 -22.5t-22.5 -53.5v-611q0 -11 8 -19.5t19.5 -8.5t20 8.5t8.5 19.5v611q0 8 6 14t14 6h746q9 0 13.5 -6t4.5 -14v-746q0 -8 -5 -13t-13 -5h-745h-128q-9 0 -15 5.5t-6 12.5v366q0 11 -8 19.5t-20 8.5t-20 -8.5t-8 -19.5v-366q0 -30 22.5 -52
t54.5 -22h873q31 0 52.5 21.5t21.5 52.5v746q0 32 -21.5 54t-52.5 22zM316 448h105q31 0 53 22t22 52v105q0 31 -22 52.5t-53 21.5h-105q-30 0 -52 -21.5t-22 -52.5v-105q0 -30 22 -52t52 -22zM298 627q0 8 5.5 13.5t12.5 5.5h105q8 0 13.5 -5.5t5.5 -13.5v-105
q0 -7 -5.5 -12.5t-13.5 -5.5h-105q-7 0 -12.5 5.5t-5.5 12.5v105zM596 583h260q12 0 20 8t8 19.5t-8 20t-20 8.5h-260q-12 0 -20 -8.5t-8 -20t8 -19.5t20 -8zM596 448h260q12 0 20 8.5t8 20t-8 19.5t-20 8h-260q-12 0 -20 -8t-8 -20t8 -20t20 -8zM268 257h598q11 0 19.5 8.5
t8.5 20t-8.5 19.5t-19.5 8h-598q-12 0 -20 -8t-8 -19.5t8 -20t20 -8.5zM268 127h598q11 0 19.5 8t8.5 19.5t-8.5 20t-19.5 8.5h-598q-12 0 -20 -8.5t-8 -20t8 -19.5t20 -8z" />
    <glyph glyph-name="uniE624" unicode="&#xe624;" horiz-adv-x="1161" 
d="M1127 -62h-1061v925q0 14 -9.5 23.5t-23.5 9.5t-23.5 -9.5t-9.5 -23.5v-991h1127q14 0 23.5 9.5t10 23.5t-9.5 23.5t-24 9.5zM225 -4h132q20 0 34 14.5t14 33.5v287q0 19 -14 32.5t-34 13.5h-132q-20 0 -33 -13.5t-13 -32.5v-280q-1 -3 -1 -6q0 -20 13.5 -34.5
t33.5 -14.5zM245 311h94v-248h-94v248zM568 -4h133q19 0 34 14.5t15 33.5v700q0 20 -15 35t-34 15h-133q-19 0 -32 -14.5t-13 -35.5v-690q-1 -5 -1 -9q0 -20 13.5 -34.5t32.5 -14.5zM589 728h94v-665h-94v665zM912 -4h133q20 0 35 14.5t15 33.5v515q0 19 -15 33t-35 14h-133
q-19 0 -32.5 -14t-13.5 -33v-510q-1 -2 -1 -4q0 -20 14 -34.5t33 -14.5zM932 540h96v-477h-96v477z" />
    <glyph glyph-name="uniE625" unicode="&#xe625;" 
d="M443 269h-99q-22 0 -38 -15.5t-16 -37.5v-99q0 -22 16 -38t38 -16h99q22 0 37.5 16t15.5 38v99q0 22 -15.5 37.5t-37.5 15.5zM438 121h-90v90h90v-90zM675 269h-99q-22 0 -37.5 -15.5t-15.5 -37.5v-99q0 -22 15.5 -38t37.5 -16h99q22 0 38 15.5t16 38.5v99q0 22 -16 37.5
t-38 15.5zM671 121h-90v90h90v-90zM443 504h-99q-22 0 -38 -15.5t-16 -37.5v-99q0 -22 16 -38t38 -16h99q22 0 37.5 16t15.5 38v99q0 22 -15.5 37.5t-37.5 15.5zM438 356h-90v90h90v-90zM675 504h-99q-22 0 -37.5 -15.5t-15.5 -37.5v-99q0 -22 15.5 -38t37.5 -16h99
q22 0 38 15.5t16 38.5v99q0 22 -16 37.5t-38 15.5zM671 356h-90v90h90v-90zM999 455l-88 79v242q0 21 -15.5 36.5t-36.5 15.5h-152q-21 0 -36.5 -15.5t-15.5 -36.5v-11l-92 83q-22 19 -51 19t-50 -19l-437 -393q-17 -16 -22.5 -38.5t2.5 -44.5q9 -22 28.5 -35t42.5 -12h76
v-6q-2 -5 -2 -11v-354q0 -22 14.5 -37.5t35.5 -15.5h624q21 0 36.5 15.5t15.5 37.5v354v17h58h4h10h3q22 0 40 12t27 33q9 23 4 46t-23 39zM965 392q-5 -10 -15 -9h-19h-3h-58q-21 0 -36.5 -15t-15.5 -36v-373h-608v1v2v370q0 21 -15.5 36t-38.5 15h-80q-12 0 -16 10.5
t4 18.5l437 392q12 10 23 0l122 -109q20 -18 44 -7t24 37v45h140v-262l107 -96q8 -8 4 -20z" />
    <glyph glyph-name="uniE626" unicode="&#xe626;" 
d="M444 317q97 0 166 69t69 166t-69 166t-166 69t-165.5 -69t-68.5 -166t68.5 -166t165.5 -69zM444 728q73 0 125 -51.5t52 -124.5t-52 -125t-125 -52t-124.5 52t-51.5 125t51.5 124.5t124.5 51.5zM657 771h338q12 0 20.5 8.5t8.5 20.5t-8.5 20.5t-20.5 8.5h-338
q-12 0 -20.5 -8.5t-8.5 -20.5t8.5 -20.5t20.5 -8.5zM995 711h-102q-12 0 -20.5 -8.5t-8.5 -20.5t8.5 -20.5t20.5 -8.5h102q12 0 20.5 8.5t8.5 20.5t-8.5 20.5t-20.5 8.5zM995.5 604.5q-11.5 2.5 -21.5 -4t-13 -18.5l-116 -517q-50 79 -128 133q-121 86 -272 86
q-150 0 -272 -85q-119 -83 -171 -218q-4 -11 1 -22t16 -15.5t22 0.5t15 16q46 119 153 192.5t236 73.5q125 0 229.5 -69t153.5 -183q1 -5 4 -10q0 -1 1 -3t1 -3q7 -19 27 -19q6 0 10 2q12 5 17 16t0 22q0 1 -0.5 2.5t-0.5 2.5l130 585q3 12 -3.5 22.5t-18 13z" />
    <glyph glyph-name="uniE627" unicode="&#xe627;" 
d="M822 720q-21 22 -51.5 22t-52 -22t-21.5 -53.5t22 -53.5q86 -88 86 -212q0 -125 -86 -213q-54 -56 -130.5 -76t-153 0t-130.5 76q-86 88 -86 213q0 124 86 212q22 22 22 53.5t-21.5 53.5t-52 22t-51.5 -22q-62 -64 -95.5 -146.5t-33.5 -173t33.5 -173t95.5 -146.5
t142 -98t168 -34t168 34t142 98t95.5 146.5t33.5 173t-33.5 173t-95.5 146.5zM512 307q30 0 51.5 21.5t21.5 51.5v439q0 30 -21.5 51.5t-51.5 21.5t-51.5 -21.5t-21.5 -51.5v-439q0 -30 21.5 -51.5t51.5 -21.5z" />
    <glyph glyph-name="uniE628" unicode="&#xe628;" 
d="M366 457h292v110q0 60 -42.5 103t-103.5 43t-103.5 -43t-42.5 -103v-110zM841 402v-329q0 -23 -16 -39t-39 -16h-548q-23 0 -39 16t-16 39v329q0 23 16 39t39 16h18v110q0 105 75.5 180.5t180.5 75.5t180.5 -75.5t75.5 -180.5v-110h18q23 0 39 -16t16 -39z" />
    <glyph glyph-name="uniE629" unicode="&#xe629;" 
d="M1012 384q0 -101 -39.5 -193t-106.5 -158t-159 -104.5t-192 -37.5q-99 1 -189.5 40.5t-156 105.5t-104.5 156.5t-39 190.5q0 101 39.5 192.5t106.5 157.5t158.5 105t192.5 38q100 -1 190.5 -40.5t156 -105.5t104.5 -157t38 -190zM325 495l4 -1h110q5 0 5 6q5 29 7 35
q13 39 45 46q20 4 42 1q29 -4 45 -31t6 -54q-12 -32 -40 -51q-47 -31 -74 -58q-14 -14 -19 -29q-4 -14 -7 -67q0 -4 6 -4h53h50q6 0 6 6q1 14 2 22q5 24 36 47q50 37 61 46q47 38 52 97q6 72 -36 118q-28 31 -76 47q-62 20 -131 10q-51 -8 -88 -41q-42 -37 -54 -101
q0 -3 -5 -44zM511 84q32 0 52.5 20t20.5 50q0 33 -20.5 53t-52.5 21q-31 0 -51.5 -20.5t-21.5 -51.5q0 -31 20.5 -51.5t52.5 -20.5z" />
    <glyph glyph-name="uniE62A" unicode="&#xe62a;" 
d="M801 298v400q0 30 -21 51t-50 21h-626q-30 0 -51 -21t-21 -51v-400q0 -29 21 -50t51 -21h119v-164l182 164h325q29 0 50 21t21 50zM920 613h-89v-350q0 -22 -23 -45t-46 -23l-350 -2q0 -29 20.5 -46t50.5 -17h138l180 -164v164h119q31 0 51.5 17t20.5 46v350
q0 29 -21 49.5t-51 20.5z" />
    <glyph glyph-name="uniE62B" unicode="&#xe62b;" horiz-adv-x="1025" 
d="M538 879q10 -11 9.5 -26t-10.5 -25l-476 -451q-11 -10 -26 -9.5t-25 11.5t-9.5 26t11.5 26l475 450q11 10 26 9.5t25 -11.5v0zM486 879q10 11 25 11.5t26 -9.5l476 -450q11 -11 11.5 -26t-10.5 -26q-10 -11 -25 -11.5t-26 9.5l-476 451q-11 10 -11.5 25t10.5 26v0z
M1024 713q0 -15 -10.5 -26t-25.5 -11t-26 11t-11 26v146q0 15 11 25.5t26 10.5t25.5 -10.5t10.5 -25.5v-146zM1024 859q0 -15 -10.5 -26t-25.5 -11h-146q-15 0 -25.5 11t-10.5 26t10.5 25.5t25.5 10.5h146q15 0 25.5 -10.5t10.5 -25.5v0zM223 -91q0 -15 -10.5 -25.5
t-25.5 -10.5t-25.5 10.5t-10.5 25.5v502q0 15 10.5 26t25.5 11t25.5 -11t10.5 -26v-502zM879 -91q0 -15 -10.5 -25.5t-26.5 -10.5q-15 0 -25.5 10.5t-10.5 25.5v502q0 15 10.5 26t25.5 11q16 0 26.5 -11t10.5 -26v-502zM441 -91q0 -15 -10.5 -25.5t-25.5 -10.5h-218
q-15 0 -25.5 10.5t-10.5 25.5t10.5 26t25.5 11h218q15 0 25.5 -11t10.5 -26v0zM879 -91q0 -15 -11 -25.5t-26 -10.5h-217q-15 0 -25.5 10.5t-10.5 25.5t10.5 26t25.5 11h217q16 0 26.5 -11t10.5 -26v0zM661 130q0 -15 -10.5 -25.5t-25.5 -10.5h-218q-15 0 -25.5 10.5
t-10.5 25.5t10.5 26t25.5 11h218q15 0 25.5 -11t10.5 -26v0zM441 -91q0 -15 -10.5 -25.5t-25.5 -10.5t-26 10.5t-11 25.5v221q0 15 11 26t26 11t25.5 -11t10.5 -26v-221zM661 -91q0 -15 -10.5 -25.5t-25.5 -10.5t-26 10.5t-11 25.5v221q0 15 11 26t26 11t25.5 -11t10.5 -26
v-221z" />
    <glyph glyph-name="uniE62C" unicode="&#xe62c;" 
d="M934 286q-41 70 -19.5 148t91.5 118l-101 175q-45 -27 -98 -27q-80 0 -137 57.5t-57 138.5h-201q0 -53 -26 -98q-41 -70 -119 -90.5t-148 19.5l-101 -174q46 -26 72 -72q40 -69 19 -147t-91 -119l101 -174q45 26 97 26q81 0 138 -57t57 -138h201q0 52 26 97
q40 70 118 90.5t149 -19.5l100 175q-45 25 -71 71zM512 177q-86 0 -146.5 60.5t-60.5 146.5t60.5 146.5t146.5 60.5t146.5 -60.5t60.5 -146.5t-60.5 -146.5t-146.5 -60.5z" />
    <glyph glyph-name="uniE62D" unicode="&#xe62d;" 
d="M67 609h224v223h-224v-223zM402 -62h224v223h-224v-223zM67 -62h224v223h-224v-223zM67 273h224v224h-224v-224zM402 273h224v224h-224v-224zM738 832v-223h223v223h-223zM402 609h224v223h-224v-223zM738 273h223v224h-223v-224zM738 -62h223v223h-223v-223z" />
    <glyph glyph-name="uniE62E" unicode="&#xe62e;" 
d="M512 896q-139 0 -257 -68.5t-186.5 -186.5t-68.5 -257t68.5 -257t186.5 -186.5t257 -68.5q35 0 60 25t25 60q0 33 -22 58q-21 24 -21 56q0 35 24.5 60t60.5 25h101q117 0 200.5 83.5t83.5 201.5q0 92 -40.5 176.5t-109 145.5t-163.5 97t-199 36zM199 384q-35 0 -60 25
t-25 60.5t25 60.5t60 25t60 -25t25 -60.5t-25 -60.5t-60 -25zM369.5 612q-35.5 0 -60.5 25t-25 60t25 60t60.5 25t60.5 -25t25 -60.5t-25 -60t-60.5 -24.5zM654.5 612q-35.5 0 -60.5 25t-25 60t25 60t60.5 25t60.5 -25t25 -60t-25 -60t-60.5 -25zM825 384q-35 0 -60 25
t-25 60.5t25 60.5t60 25t60 -25t25 -60.5t-25 -60.5t-60 -25z" />
    <glyph glyph-name="uniE62F" unicode="&#xe62f;" 
d="M342 468l375 2l-180 -473zM385 640l286 -3l51 -115l-372 3zM303 528l-226 99l121 94l146 -79zM77 570l214 -100l231 -469zM772 471l201 108l-424 -576zM767 529l-56 121l129 75l111 -97zM381 698l-49 13l-92 54l108 40h353l107 -47l-103 -51l-35 -9h-289z" />
    <glyph glyph-name="uniE630" unicode="&#xe630;" 
d="M510 707q-101 0 -172 -70t-71 -168.5t71 -168.5t172 -70t172 70t71 168.5t-71 168.5t-172 70zM229 377v220q-4 0 -9 -1q38 83 116.5 133.5t174 50.5t173.5 -50.5t116 -133.5q-4 1 -9 1v-220q47 0 79.5 32t32.5 78q0 30 -15.5 55.5t-41.5 40.5q-37 103 -129 168.5
t-207 65.5t-207 -65.5t-129 -168.5q-26 -15 -41.5 -40.5t-15.5 -55.5q0 -46 33 -78t79 -32zM753 251q-103 -94 -243 -94t-242 94q-88 -45 -138.5 -121t-50.5 -177h865q0 101 -51 177t-140 121zM753 251z" />
    <glyph glyph-name="uniE631" unicode="&#xe631;" 
d="M505 320q-119 0 -203.5 84.5t-84.5 203.5t84.5 203.5t203.5 84.5t203.5 -84.5t84.5 -203.5t-84.5 -203.5t-203.5 -84.5zM505 832q-93 0 -158.5 -65.5t-65.5 -158.5t65.5 -158.5t158.5 -65.5t158.5 65.5t65.5 158.5t-65.5 158.5t-158.5 65.5zM932 -128h-840l38 343l178 71
l24 -60l-142 -57l-26 -233h696l-26 233l-142 57l24 60l178 -71z" />
  </font>
</defs>
</svg>
